<svg width="24" height="24" viewBox="0 0 24 24" fill="none" xmlns="http://www.w3.org/2000/svg">
<path fill-rule="evenodd" clip-rule="evenodd" d="M3 4H6.15196C6.46598 4 6.73247 4.23034 6.77792 4.54105L8.00064 12.9001H17.5604L19.8086 6.6123L21 7.03827L18.6017 13.7457C18.5118 13.9974 18.2733 14.1653 18.0061 14.1653H7.45383C7.13981 14.1653 6.87332 13.935 6.82787 13.6243L5.60515 5.26523H3V4Z" fill="#EFEBEB"/>
<path fill-rule="evenodd" clip-rule="evenodd" d="M8.07763 18.8673C8.51808 18.8673 8.87513 18.5103 8.87513 18.0698C8.87513 17.6294 8.51808 17.2723 8.07763 17.2723C7.63718 17.2723 7.28012 17.6294 7.28012 18.0698C7.28012 18.5103 7.63718 18.8673 8.07763 18.8673ZM10.1404 18.0698C10.1404 19.209 9.21684 20.1325 8.07763 20.1325C6.93841 20.1325 6.01489 19.209 6.01489 18.0698C6.01489 16.9306 6.93841 16.0071 8.07763 16.0071C9.21684 16.0071 10.1404 16.9306 10.1404 18.0698Z" fill="#EFEBEB"/>
<path fill-rule="evenodd" clip-rule="evenodd" d="M18.4558 18.8673C18.8963 18.8673 19.2533 18.5103 19.2533 18.0698C19.2533 17.6294 18.8963 17.2723 18.4558 17.2723C18.0154 17.2723 17.6583 17.6294 17.6583 18.0698C17.6583 18.5103 18.0154 18.8673 18.4558 18.8673ZM20.5185 18.0698C20.5185 19.209 19.595 20.1325 18.4558 20.1325C17.3166 20.1325 16.3931 19.209 16.3931 18.0698C16.3931 16.9306 17.3166 16.0071 18.4558 16.0071C19.595 16.0071 20.5185 16.9306 20.5185 18.0698Z" fill="#EFEBEB"/>
</svg>
