<svg width="24" height="24" viewBox="0 0 24 24" fill="none" xmlns="http://www.w3.org/2000/svg">
<path fill-rule="evenodd" clip-rule="evenodd" d="M3 4H6.15196C6.46598 4 6.73247 4.23034 6.77792 4.54105L8.00064 12.9001H17.5604L19.8086 6.6123L21 7.03827L18.6017 13.7457C18.5118 13.9974 18.2733 14.1653 18.0061 14.1653H7.45383C7.13981 14.1653 6.87332 13.935 6.82787 13.6243L5.60515 5.26523H3V4Z" fill="#3C3C3B"/>
<path fill-rule="evenodd" clip-rule="evenodd" d="M8.07836 18.8681C8.51881 18.8681 8.87586 18.511 8.87586 18.0705C8.87586 17.6301 8.51881 17.273 8.07836 17.273C7.63791 17.273 7.28085 17.6301 7.28085 18.0705C7.28085 18.511 7.63791 18.8681 8.07836 18.8681ZM10.1411 18.0705C10.1411 19.2098 9.21758 20.1333 8.07836 20.1333C6.93914 20.1333 6.01562 19.2098 6.01562 18.0705C6.01562 16.9313 6.93914 16.0078 8.07836 16.0078C9.21758 16.0078 10.1411 16.9313 10.1411 18.0705Z" fill="#3C3C3B"/>
<path fill-rule="evenodd" clip-rule="evenodd" d="M18.4573 18.8681C18.8977 18.8681 19.2548 18.511 19.2548 18.0705C19.2548 17.6301 18.8977 17.273 18.4573 17.273C18.0168 17.273 17.6598 17.6301 17.6598 18.0705C17.6598 18.511 18.0168 18.8681 18.4573 18.8681ZM20.52 18.0705C20.52 19.2098 19.5965 20.1333 18.4573 20.1333C17.318 20.1333 16.3945 19.2098 16.3945 18.0705C16.3945 16.9313 17.318 16.0078 18.4573 16.0078C19.5965 16.0078 20.52 16.9313 20.52 18.0705Z" fill="#3C3C3B"/>
</svg>
