<svg width="24" height="25" viewBox="0 0 24 25" fill="none" xmlns="http://www.w3.org/2000/svg">
<path fill-rule="evenodd" clip-rule="evenodd" d="M6.6 5.01766H17.4C18.7421 5.01766 19.83 6.1056 19.83 7.44766V18.2477C19.83 19.5897 18.7421 20.6777 17.4 20.6777H6.6C5.25795 20.6777 4.17 19.5897 4.17 18.2477V7.44766C4.17 6.1056 5.25795 5.01766 6.6 5.01766ZM3 7.44766C3 5.45943 4.61177 3.84766 6.6 3.84766H17.4C19.3882 3.84766 21 5.45943 21 7.44766V18.2477C21 20.2359 19.3882 21.8477 17.4 21.8477H6.6C4.61177 21.8477 3 20.2359 3 18.2477V7.44766ZM13.4193 9.39726L14.1262 9.42432L14.1256 8.34766H12.9232C11.5822 8.34766 11.3268 8.94969 11.3268 10.2135V11.4283C11.3268 11.5083 11.3167 11.585 11.2603 11.6419C11.2323 11.6698 11.1991 11.692 11.1625 11.7071C11.126 11.7222 11.0868 11.7299 11.0472 11.7298H10.2V12.8189H11.0472C11.2141 12.8189 11.3274 12.9536 11.3274 13.1199V17.3477H12.4683L12.4689 13.1194C12.469 13.0395 12.5009 12.9629 12.5574 12.9065C12.614 12.85 12.6906 12.8183 12.7705 12.8183H14.1459V11.7293H12.7693C12.7298 11.7293 12.6906 11.7215 12.654 11.7063C12.6175 11.6911 12.5842 11.6689 12.5563 11.6409C12.5283 11.6129 12.5062 11.5797 12.4911 11.5431C12.476 11.5065 12.4682 11.4673 12.4683 11.4277L12.4706 10.3589C12.4706 9.87246 12.5439 9.39726 13.4193 9.39726Z" fill="white"/>
</svg>
