<svg width="24" height="24" viewBox="0 0 24 24" fill="none" xmlns="http://www.w3.org/2000/svg">
<g clip-path="url(#clip0_3020_6027)">
<path fill-rule="evenodd" clip-rule="evenodd" d="M-0.645996 4.99998C-0.645996 4.64099 -0.354981 4.34998 0.00400388 4.34998H24.0006C24.3596 4.34998 24.6506 4.64099 24.6506 4.99998C24.6506 5.35896 24.3596 5.64998 24.0006 5.64998H0.00400388C-0.354981 5.64998 -0.645996 5.35896 -0.645996 4.99998Z" fill="#3C3C3B"/>
<path fill-rule="evenodd" clip-rule="evenodd" d="M-0.649902 11.856C-0.649902 11.497 -0.358887 11.206 9.76324e-05 11.206H23.9907C24.3497 11.206 24.6407 11.497 24.6407 11.856C24.6407 12.215 24.3497 12.506 23.9907 12.506H9.76324e-05C-0.358887 12.506 -0.649902 12.215 -0.649902 11.856Z" fill="#3C3C3B"/>
<path fill-rule="evenodd" clip-rule="evenodd" d="M-0.645508 18.712C-0.645508 18.353 -0.354493 18.062 0.00449216 18.062H23.9911C24.3501 18.062 24.6411 18.353 24.6411 18.712C24.6411 19.071 24.3501 19.362 23.9911 19.362H0.00449216C-0.354493 19.362 -0.645508 19.071 -0.645508 18.712Z" fill="#3C3C3B"/>
</g>
<defs>
<clipPath id="clip0_3020_6027">
<rect width="24" height="24" fill="white"/>
</clipPath>
</defs>
</svg>
