<svg width="24" height="25" viewBox="0 0 24 25" fill="none" xmlns="http://www.w3.org/2000/svg">
<path fill-rule="evenodd" clip-rule="evenodd" d="M17.4 5.01766H6.6C5.25795 5.01766 4.17 6.1056 4.17 7.44766V18.2477C4.17 19.5897 5.25795 20.6777 6.6 20.6777H17.4C18.7421 20.6777 19.83 19.5897 19.83 18.2477V7.44766C19.83 6.1056 18.7421 5.01766 17.4 5.01766ZM6.6 3.84766C4.61177 3.84766 3 5.45943 3 7.44766V18.2477C3 20.2359 4.61177 21.8477 6.6 21.8477H17.4C19.3882 21.8477 21 20.2359 21 18.2477V7.44766C21 5.45943 19.3882 3.84766 17.4 3.84766H6.6ZM12 15.2777C13.3421 15.2777 14.43 14.1897 14.43 12.8477C14.43 11.5056 13.3421 10.4177 12 10.4177C10.6579 10.4177 9.57 11.5056 9.57 12.8477C9.57 14.1897 10.6579 15.2777 12 15.2777ZM12 16.4477C13.9882 16.4477 15.6 14.8359 15.6 12.8477C15.6 10.8594 13.9882 9.24766 12 9.24766C10.0118 9.24766 8.4 10.8594 8.4 12.8477C8.4 14.8359 10.0118 16.4477 12 16.4477ZM16.5 9.24766C16.9971 9.24766 17.4 8.84471 17.4 8.34766C17.4 7.8506 16.9971 7.44766 16.5 7.44766C16.0029 7.44766 15.6 7.8506 15.6 8.34766C15.6 8.84471 16.0029 9.24766 16.5 9.24766Z" fill="white"/>
</svg>
