<svg width="150" height="17" viewBox="0 0 150 17" fill="none" xmlns="http://www.w3.org/2000/svg">
<path d="M9.85151 16.562L2.56996 2.85551V16.562H0V0H3.6265L10.9366 13.6779V0H13.5066V16.562H9.85151Z" fill="#3C3C3B"/>
<path d="M37.2069 0V9.93718C37.2069 13.0782 38.1778 14.6773 41.2903 14.6773C44.4028 14.6773 45.4022 12.9355 45.4022 9.76585V0H48.0007V9.62307C48.0007 14.6488 46.1161 16.8761 41.2903 16.8761C36.6073 16.8761 34.6084 14.9914 34.6084 9.76585V0H37.2069Z" fill="#3C3C3B"/>
<path d="M85.2942 0H91.3764C94.4033 0 97.2302 0.799543 97.2302 4.16905C97.2302 5.71102 96.4878 7.13878 95.4027 7.76699C96.8876 8.42376 97.887 9.56596 97.887 11.7076C97.887 15.2199 95.2314 16.5905 91.8333 16.5905H85.2656V0H85.2942ZM87.8927 7.02456H91.6905C93.4895 7.02456 94.6032 6.28213 94.6032 4.48315C94.6032 2.91262 93.4038 2.14163 91.6905 2.14163H87.8927V7.02456ZM87.8927 14.4203H91.9475C94.1748 14.4203 95.2599 13.4495 95.2599 11.679C95.2599 9.85151 94.1748 9.02342 91.8048 9.02342H87.8927V14.4203Z" fill="#3C3C3B"/>
<path d="M147.145 16.5625V13.707H150V16.5625H147.145Z" fill="#3C3C3B"/>
</svg>
