<svg width="24" height="24" viewBox="0 0 24 24" fill="none" xmlns="http://www.w3.org/2000/svg">
<path fill-rule="evenodd" clip-rule="evenodd" d="M10.3942 4.22452C6.98678 4.22452 4.22452 6.98678 4.22452 10.3942C4.22452 13.8016 6.98678 16.5639 10.3942 16.5639C13.8016 16.5639 16.5639 13.8016 16.5639 10.3942C16.5639 6.98678 13.8016 4.22452 10.3942 4.22452ZM3 10.3942C3 6.3105 6.3105 3 10.3942 3C14.4779 3 17.7884 6.3105 17.7884 10.3942C17.7884 14.4779 14.4779 17.7884 10.3942 17.7884C6.3105 17.7884 3 14.4779 3 10.3942Z" fill="#3C3C3B"/>
<path fill-rule="evenodd" clip-rule="evenodd" d="M11.0067 11.0067V13.1072H9.78216V11.0067H7.68164V9.78216H9.78216V7.68164H11.0067V9.78216H13.1072V11.0067H11.0067Z" fill="#3C3C3B"/>
<path fill-rule="evenodd" clip-rule="evenodd" d="M15.5748 14.709L21.0004 20.1345L20.1345 21.0004L14.709 15.5748L15.5748 14.709Z" fill="#3C3C3B"/>
</svg>
